<?xml version="1.0" encoding="UTF-8"?>
<!DOCTYPE svg PUBLIC "-//W3C//DTD SVG 1.1//EN" "http://www.w3.org/Graphics/SVG/1.1/DTD/svg11.dtd">
<!-- Creator: CorelDRAW (Evaluation Version) -->
<svg xmlns="http://www.w3.org/2000/svg" xml:space="preserve" width="159.736mm" height="18.4615mm" version="1.1" style="shape-rendering:geometricPrecision; text-rendering:geometricPrecision; image-rendering:optimizeQuality; fill-rule:evenodd; clip-rule:evenodd"
viewBox="0 0 17322.9 2002.1"
 xmlns:xlink="http://www.w3.org/1999/xlink"
 xmlns:xodm="http://www.corel.com/coreldraw/odm/2003">
 <defs>
  <style type="text/css">
   <![CDATA[
    .str0 {stroke:#2B2A29;stroke-width:38.26;stroke-miterlimit:2.61313;stroke-dasharray:191.300599 114.780359}
    .str1 {stroke:#FEFEFE;stroke-width:19.13;stroke-linecap:round;stroke-linejoin:round;stroke-miterlimit:2.61313;stroke-dasharray:38.260120 57.390180}
    .fil4 {fill:none}
    .fil3 {fill:#FEFEFE}
    .fil0 {fill:#D9DADA}
    .fil2 {fill:#ED3237}
    .fil1 {fill:#2B4173;fill-rule:nonzero}
    .fil5 {fill:#314C7C;fill-rule:nonzero}
    .fil6 {fill:#ED3237;fill-rule:nonzero}
   ]]>
  </style>
     <clipPath id="id0">
      <path d="M1449.02 609.1c0.08,84.83 -25.66,207.86 -52.63,264.17l-10.64 -0.23c-345.7,-66.66 -715.12,-31.24 -1090.03,63.33 -30.18,-67.95 -59.18,-176.92 -67.97,-255.14 -16.18,-144.27 9.13,-252.83 70.39,-364.2 13.12,-23.89 19.75,-37.33 34.43,-57.96 344.32,-484.05 1115.99,-245.58 1116.45,350.03z"/>
     </clipPath>
 </defs>
 <g id="Layer_x0020_1">
  <metadata id="CorelCorpID_0Corel-Layer"/>
  <g id="_2219536874848">
   <g>
    <path class="fil0" d="M839.89 1652.3c124.48,0 225.41,27.76 225.43,62.01 0.03,34.25 -100.86,62.01 -225.33,62.01 -124.49,0 -225.41,-27.76 -225.44,-62.01 -0.02,-34.25 100.86,-62.01 225.34,-62.01z"/>
    <path class="fil1" d="M2009.38 1981.7c-331.88,-41.08 -1409.29,-166.18 -1658.82,-359.21 -99.38,-76.9 -125.27,-196.09 -18.18,-281.31 29.62,-23.58 87.26,-69.09 126.45,-78.23 14.48,21.59 27.45,39.57 41.78,63.94 30.94,52.63 95.62,134.42 133.02,184.14 19.8,26.31 26.78,34.25 48.39,57.34l49.52 56.2c35.74,35.39 67.25,68.68 104.11,100.7 82.27,-55.11 244.48,-260.86 303.47,-350.1l58.21 -87.03c21.26,-33.04 81.67,-137.21 110.91,-198.21 -241.54,-24.6 -724.43,79.87 -888.35,123.3l-0.17 0.02c-71.29,25.96 -139.15,54.73 -201.84,86.1 -51.48,25.75 -98.78,49.55 -140.53,83.97 -473.66,390.6 1364.43,655.3 1815.67,610.05l116.35 -11.67z"/>
    <path class="fil2" d="M1449.02 609.1c0.08,84.83 -25.66,207.86 -52.63,264.17l-10.64 -0.23c-345.7,-66.66 -715.12,-31.24 -1090.03,63.33 -30.18,-67.95 -59.18,-176.92 -67.97,-255.14 -16.18,-144.27 9.13,-252.83 70.39,-364.2 13.12,-23.89 19.75,-37.33 34.43,-57.96 344.32,-484.05 1115.99,-245.58 1116.45,350.03z"/>
    <g style="clip-path:url(#id0)">
     <g>
      <path id="_1" class="fil3" d="M1083.47 888.7c-20.95,2.82 -42.86,5.02 -61.97,-3.07 -28.45,-12.03 -8.63,-12.97 -49.63,-11.74l-305.37 10.34c-22.57,7.16 -9.24,22.87 -81.41,19.95l0.73 20.58 -91.1 36.46 -41.65 13.08c24.39,-11.13 46.62,-19.41 64.48,-23.16l-27.23 -0.51c-5.85,-11.46 -4.9,-30.01 -4.78,-46.94l-1.14 -22.42 -2.87 -89.59 -0.47 -22.51c-1.23,-19.33 -1.34,-38.97 -2.09,-58.36 -0.95,-24.86 -1.04,-29 7.1,-48.41 11.26,-7.62 12.58,-11.02 20.12,-23.03 11.15,-7.98 33.31,-38.99 40.85,-50.36 -102.49,-5 -82.38,-63.7 19.85,-53.68l13.08 -31.01 11.04 -17.26c39.04,-51.25 8.96,-47.12 88.73,-67.61 75.28,-19.31 205.41,-25.22 281.51,-7.97 14.79,3.36 17.67,5.59 33,7.96 34.94,5.42 30.99,26.86 57.39,51.58l8.44 15.93 17.68 33.37c35.7,-5.87 88.32,-13.84 88.68,31.27 -17.82,14.23 -34.01,16.55 -63.48,20.58 5.12,11.66 32.56,40.96 45.6,51.06l15.5 15.25c11.67,21.59 12.62,18.13 13.47,51.19 0.47,17.9 2.44,38.51 1.1,55.47l1.11 26.59 3.19 88.7 0.12 21.41 1.56 45.42 -20.26 4.25c11.7,3.99 22.76,7.82 33.4,11.57l-1.33 0.82 -119.27 -29.92 -29.5 -7.3c11.91,1.59 24.25,3.25 37.12,4.98l-1.28 -22.95zm-570.85 -185.68c-2.1,24.94 23.49,34.04 48.74,38.26 19.33,3.22 61.93,4.03 71.2,-12.14 20.27,-35.35 -81.54,-52.4 -119.93,-26.12zm610.78 -27.19c-24.87,-6.64 -55.83,-1.55 -78.3,8.27 -27.82,12.17 -37.84,37.03 -0.78,43.31 55.1,9.35 145.18,-33.95 79.08,-51.59zm-45.05 -107.46c-9.75,-33.93 -57.96,-111.77 -78.42,-117.62 -19.42,-5.56 -145.48,9.37 -177.69,10.54 -34.03,1.25 -165.74,-8.58 -186.08,2.99 -9.87,5.62 -67.01,96.07 -63.3,119.07 83.27,0.44 171.13,7.98 253.51,5.68 81.53,-2.27 169.67,-16.14 251.99,-20.67z"/>
     </g>
    </g>
    <path class="fil4" d="M1449.02 609.1c0.08,84.83 -25.66,207.86 -52.63,264.17l-10.64 -0.23c-345.7,-66.66 -715.12,-31.24 -1090.03,63.33 -30.18,-67.95 -59.18,-176.92 -67.97,-255.14 -16.18,-144.27 9.13,-252.83 70.39,-364.2 13.12,-23.89 19.75,-37.33 34.43,-57.96 344.32,-484.05 1115.99,-245.58 1116.45,350.03z"/>
    <g>
     <path class="fil4 str0" d="M325.89 1104.36c323.48,-126.79 699.47,-189.76 1071.12,-129.76"/>
    </g>
    <path class="fil4 str1" d="M331.89 1295.79c-522.47,220.36 74.29,507.91 295.4,532.46"/>
   </g>
   <path class="fil5" d="M3358.53 2002.08l-2.75 -1346.86 -313.99 0 -462.72 776.72 -473.74 -776.72 -313.99 0 0 1346.86 352.55 0 0 -694.08 344.29 561.88 170.77 0 347.04 -581.16 2.75 713.36 349.8 0 -0.01 0zm1280.75 0l396.62 0 -597.68 -1346.86 -374.59 0 -597.68 1346.86 391.11 0 104.66 -261.66 570.14 0 107.42 261.66zm-564.63 -542.6l173.53 -432.42 173.53 432.42 -347.04 0 -0.01 0zm1974.83 542.6l443.44 0 -581.16 -749.17 550.86 -597.68 -418.66 0 -523.32 559.12 0 -559.12 -377.34 0 0 1346.86 377.34 0 0 -336.02 143.23 -151.49 385.61 487.51 0.01 0zm919.95 -294.72l0 -245.13 597.68 0 0 -286.45 -597.68 0 0 -225.85 680.31 0 0 -294.72 -1057.65 0 0 1346.86 1082.44 0 0 -294.72 -705.1 0 0 0.01z"/>
   <g>
    <polygon class="fil5" points="16617.8,1707.38 16617.8,1462.25 17218.24,1462.25 17218.24,1175.8 16617.8,1175.8 16617.8,949.95 17298.11,949.95 17298.11,655.24 16240.46,655.24 16240.46,2002.1 17322.9,2002.1 17322.9,1707.38 "/>
    <polygon class="fil6" points="9748.54,2002.08 9745.79,655.23 9431.8,655.23 8969.08,1431.95 8495.34,655.23 8181.35,655.23 8181.35,2002.08 8533.9,2002.08 8533.9,1308 8878.19,1869.88 9048.96,1869.88 9396,1288.72 9398.76,2002.08 9748.55,2002.08 "/>
    <path class="fil5" d="M12747.99 2002.08l407.64 0 -289.21 -421.4c165.26,-82.63 261.66,-228.61 261.66,-426.91 0,-308.48 -231.36,-498.53 -597.68,-498.53l-616.97 0 0 371.83 484.76 0 0 -115.68 377.34 242.38 -377.34 239.62 0 -115.68 -484.76 0 0 724.38 382.85 0 0 -358.06 206.57 0 245.13 358.06 0 -0.01z"/>
    <polygon class="fil5" points="14557.57,655.23 14188.5,655.23 13869,1189.57 13549.5,655.23 13147.37,655.23 13659.68,1514.57 13659.68,2002.08 14042.53,2002.08 14042.53,1520.08 "/>
    <path class="fil5" d="M14648.47 2002.08l639 0c446.19,0 751.93,-258.91 751.93,-672.05 0,-415.91 -305.72,-674.8 -751.93,-674.8l-639 0 0 1346.86 0 -0.01zm382.84 -302.98l0 -740.91 239.62 0c228.61,0 382.85,137.72 382.85,371.83 0,231.36 -154.24,369.08 -382.85,369.08l-239.62 0z"/>
    <polygon class="fil6" points="11257.92,655.23 10886.09,655.23 10566.59,1189.57 10247.09,655.23 9844.96,655.23 10360.01,1514.57 10360.01,2002.08 10740.11,2002.08 10740.11,1520.08 "/>
   </g>
  </g>
 </g>
</svg>
