<svg xmlns="http://www.w3.org/2000/svg" xmlns:xlink="http://www.w3.org/1999/xlink" width="180" zoomAndPan="magnify" viewBox="0 0 135 30.000001" height="40" preserveAspectRatio="xMidYMid meet" version="1.0"><defs><clipPath id="f727e93d54"><path d="M 2.234375 13 L 51 13 L 51 24.082031 L 2.234375 24.082031 Z M 2.234375 13 " clip-rule="nonzero"/></clipPath><clipPath id="595570eef0"><path d="M 87 13 L 99 13 L 99 24.082031 L 87 24.082031 Z M 87 13 " clip-rule="nonzero"/></clipPath><clipPath id="17009f9d33"><path d="M 98 13 L 110 13 L 110 24.082031 L 98 24.082031 Z M 98 13 " clip-rule="nonzero"/></clipPath><clipPath id="5e2b5dba07"><path d="M 110 13 L 122 13 L 122 24.082031 L 110 24.082031 Z M 110 13 " clip-rule="nonzero"/></clipPath><clipPath id="f7d6ba67f8"><path d="M 123 13 L 132.820312 13 L 132.820312 24.082031 L 123 24.082031 Z M 123 13 " clip-rule="nonzero"/></clipPath><clipPath id="faef21543e"><path d="M 57 13 L 71 13 L 71 24.082031 L 57 24.082031 Z M 57 13 " clip-rule="nonzero"/></clipPath><clipPath id="c867cfd585"><path d="M 70 13 L 83 13 L 83 24.082031 L 70 24.082031 Z M 70 13 " clip-rule="nonzero"/></clipPath><clipPath id="a69eb302a4"><path d="M 58 0.128906 L 70 0.128906 L 70 8 L 58 8 Z M 58 0.128906 " clip-rule="nonzero"/></clipPath><clipPath id="3dfdd33c2f"><path d="M 60 3 L 67 3 L 67 7.832031 L 60 7.832031 Z M 60 3 " clip-rule="nonzero"/></clipPath><clipPath id="10f414244b"><path d="M 69.074219 5.171875 C 69.074219 5.847656 68.847656 6.863281 68.621094 7.335938 L 68.550781 7.335938 C 65.695312 6.773438 62.652344 7.066406 59.566406 7.832031 C 59.320312 7.292969 59.070312 6.390625 59 5.757812 C 58.863281 4.5625 59.089844 3.683594 59.589844 2.785156 C 59.703125 2.582031 59.75 2.46875 59.863281 2.308594 C 62.722656 -1.65625 69.074219 0.28125 69.074219 5.171875 Z M 69.074219 5.171875 " clip-rule="evenodd"/></clipPath></defs><g clip-path="url(#f727e93d54)"><path fill="#314c7c" d="M 15.375 24.152344 L 15.351562 13.128906 L 12.765625 13.128906 L 8.953125 19.484375 L 5.050781 13.128906 L 2.464844 13.128906 L 2.464844 24.152344 L 5.367188 24.152344 L 5.367188 18.472656 L 8.203125 23.070312 L 9.609375 23.070312 L 12.46875 18.3125 L 12.492188 24.152344 Z M 25.921875 24.152344 L 29.191406 24.152344 L 24.265625 13.128906 L 21.179688 13.128906 L 16.257812 24.152344 L 19.480469 24.152344 L 20.34375 22.011719 L 25.039062 22.011719 Z M 21.273438 19.710938 L 22.703125 16.171875 L 24.128906 19.710938 Z M 37.539062 24.152344 L 41.191406 24.152344 L 36.40625 18.019531 L 40.941406 13.128906 L 37.492188 13.128906 L 33.183594 17.707031 L 33.183594 13.128906 L 30.074219 13.128906 L 30.074219 24.152344 L 33.183594 24.152344 L 33.183594 21.402344 L 34.363281 20.164062 Z M 45.117188 21.738281 L 45.117188 19.734375 L 50.039062 19.734375 L 50.039062 17.390625 L 45.117188 17.390625 L 45.117188 15.542969 L 50.71875 15.542969 L 50.71875 13.128906 L 42.007812 13.128906 L 42.007812 24.152344 L 50.925781 24.152344 L 50.925781 21.738281 Z M 45.117188 21.738281 " fill-opacity="1" fill-rule="nonzero"/></g><g clip-path="url(#595570eef0)"><path fill="#314c7c" d="M 94.757812 24.152344 L 98.113281 24.152344 L 95.730469 20.703125 C 97.09375 20.027344 97.886719 18.832031 97.886719 17.210938 C 97.886719 14.683594 95.980469 13.128906 92.964844 13.128906 L 87.882812 13.128906 L 87.882812 16.171875 L 91.875 16.171875 L 91.875 15.226562 L 94.984375 17.210938 L 91.875 19.171875 L 91.875 18.222656 L 87.882812 18.222656 L 87.882812 24.152344 L 91.035156 24.152344 L 91.035156 21.222656 L 92.738281 21.222656 Z M 94.757812 24.152344 " fill-opacity="1" fill-rule="nonzero"/></g><g clip-path="url(#17009f9d33)"><path fill="#314c7c" d="M 109.660156 13.128906 L 106.621094 13.128906 L 103.988281 17.503906 L 101.359375 13.128906 L 98.046875 13.128906 L 102.265625 20.164062 L 102.265625 24.152344 L 105.417969 24.152344 L 105.417969 20.207031 Z M 109.660156 13.128906 " fill-opacity="1" fill-rule="nonzero"/></g><g clip-path="url(#5e2b5dba07)"><path fill="#314c7c" d="M 110.410156 24.152344 L 115.671875 24.152344 C 119.347656 24.152344 121.867188 22.03125 121.867188 18.652344 C 121.867188 15.25 119.347656 13.128906 115.671875 13.128906 L 110.410156 13.128906 Z M 113.5625 21.671875 L 113.5625 15.609375 L 115.539062 15.609375 C 117.421875 15.609375 118.691406 16.734375 118.691406 18.652344 C 118.691406 20.546875 117.421875 21.671875 115.539062 21.671875 Z M 113.5625 21.671875 " fill-opacity="1" fill-rule="nonzero"/></g><g clip-path="url(#f7d6ba67f8)"><path fill="#314c7c" d="M 126.632812 21.738281 L 126.632812 19.734375 L 131.578125 19.734375 L 131.578125 17.390625 L 126.632812 17.390625 L 126.632812 15.542969 L 132.234375 15.542969 L 132.234375 13.128906 L 123.523438 13.128906 L 123.523438 24.152344 L 132.4375 24.152344 L 132.4375 21.738281 Z M 126.632812 21.738281 " fill-opacity="1" fill-rule="nonzero"/></g><path fill="#d2d3d5" d="M 64.039062 13.691406 C 65.058594 13.691406 65.898438 13.917969 65.898438 14.210938 C 65.898438 14.480469 65.058594 14.707031 64.039062 14.707031 C 63.015625 14.707031 62.175781 14.480469 62.175781 14.210938 C 62.175781 13.917969 63.015625 13.691406 64.039062 13.691406 Z M 64.039062 13.691406 " fill-opacity="1" fill-rule="evenodd"/><path fill="#314c7c" d="M 70.164062 16.441406 C 67.417969 16.105469 62.0625 15.046875 60.023438 13.46875 C 59.183594 12.835938 58.976562 11.84375 59.863281 11.144531 C 60.113281 10.964844 60.589844 10.582031 60.90625 10.515625 C 61.019531 10.695312 61.132812 10.832031 61.246094 11.03125 C 61.496094 11.460938 62.039062 12.136719 62.335938 12.542969 C 62.515625 12.769531 62.5625 12.835938 62.746094 13.015625 L 63.152344 13.46875 C 63.449219 13.761719 63.695312 14.03125 64.015625 14.300781 C 64.671875 13.851562 66.011719 12.160156 66.511719 11.4375 L 66.988281 10.71875 C 67.167969 10.445312 67.667969 9.589844 67.894531 9.09375 C 65.921875 8.890625 61.925781 9.75 60.589844 10.109375 C 60 10.3125 59.433594 10.558594 58.910156 10.808594 C 58.5 11.03125 58.117188 11.214844 57.753906 11.507812 C 53.398438 15.089844 68.53125 16.441406 70.164062 16.644531 Z M 70.164062 16.441406 " fill-opacity="1" fill-rule="nonzero"/><g clip-path="url(#faef21543e)"><path fill="#ed3237" d="M 70.050781 24.152344 L 70.027344 16.847656 C 69.234375 16.757812 68.4375 16.667969 67.621094 16.578125 C 66.941406 16.488281 66.238281 16.398438 65.535156 16.285156 L 63.628906 19.484375 L 61.132812 15.449219 C 59.636719 15.046875 57.890625 14.460938 57.140625 13.625 L 57.140625 24.152344 L 60.042969 24.152344 L 60.042969 18.472656 L 62.878906 23.070312 L 64.265625 23.070312 L 67.121094 18.3125 L 67.167969 24.152344 Z M 70.027344 16.195312 L 70.027344 13.128906 L 67.441406 13.128906 L 66.011719 15.472656 C 67.507812 15.8125 68.960938 16.058594 70.027344 16.195312 Z M 70.027344 16.195312 " fill-opacity="1" fill-rule="evenodd"/></g><g clip-path="url(#c867cfd585)"><path fill="#ed3237" d="M 82.480469 13.128906 L 79.417969 13.128906 L 76.789062 17.503906 L 74.15625 13.128906 L 70.84375 13.128906 L 75.085938 20.164062 L 75.085938 24.152344 L 78.21875 24.152344 L 78.21875 20.207031 Z M 82.480469 13.128906 " fill-opacity="1" fill-rule="nonzero"/></g><g clip-path="url(#a69eb302a4)"><path fill="#314c7c" d="M 69.074219 5.171875 C 69.074219 5.847656 68.847656 6.863281 68.621094 7.335938 L 68.550781 7.335938 C 65.695312 6.773438 62.652344 7.066406 59.566406 7.832031 C 59.320312 7.292969 59.070312 6.390625 59 5.757812 C 58.863281 4.5625 59.089844 3.683594 59.589844 2.785156 C 59.703125 2.582031 59.75 2.46875 59.863281 2.308594 C 62.722656 -1.65625 69.074219 0.28125 69.074219 5.171875 Z M 69.074219 5.171875 " fill-opacity="1" fill-rule="evenodd"/></g><g clip-path="url(#3dfdd33c2f)"><g clip-path="url(#10f414244b)"><path fill="#ed3237" d="M 66.054688 7.449219 C 65.875 7.472656 65.695312 7.496094 65.535156 7.425781 C 65.308594 7.335938 65.464844 7.3125 65.125 7.335938 L 62.609375 7.425781 C 62.425781 7.472656 62.539062 7.605469 61.949219 7.585938 L 61.949219 7.742188 L 61.203125 8.058594 L 60.859375 8.148438 C 61.066406 8.058594 61.246094 7.988281 61.382812 7.96875 L 61.15625 7.96875 C 61.109375 7.878906 61.132812 7.71875 61.132812 7.585938 L 61.109375 7.382812 L 61.089844 6.660156 L 61.089844 6.480469 C 61.089844 6.320312 61.089844 6.164062 61.066406 6.007812 C 61.066406 5.804688 61.066406 5.757812 61.132812 5.601562 C 61.222656 5.535156 61.246094 5.511719 61.292969 5.421875 C 61.382812 5.351562 61.566406 5.105469 61.632812 4.992188 C 60.792969 4.96875 60.953125 4.472656 61.792969 4.5625 L 61.90625 4.316406 L 61.996094 4.160156 C 62.3125 3.753906 62.0625 3.773438 62.722656 3.617188 C 63.355469 3.460938 64.421875 3.414062 65.058594 3.550781 C 65.171875 3.570312 65.195312 3.59375 65.332031 3.617188 C 65.601562 3.664062 65.582031 3.84375 65.785156 4.046875 L 65.851562 4.160156 L 66.011719 4.429688 C 66.304688 4.382812 66.738281 4.316406 66.738281 4.699219 C 66.601562 4.8125 66.464844 4.835938 66.214844 4.855469 C 66.261719 4.96875 66.488281 5.195312 66.601562 5.285156 L 66.714844 5.398438 C 66.804688 5.578125 66.828125 5.554688 66.828125 5.828125 C 66.828125 5.960938 66.851562 6.140625 66.828125 6.277344 L 66.851562 6.503906 L 66.875 7.222656 L 66.875 7.402344 L 66.894531 7.765625 L 66.714844 7.808594 C 66.804688 7.832031 66.894531 7.878906 66.988281 7.898438 L 65.988281 7.652344 L 65.761719 7.605469 C 65.851562 7.605469 65.964844 7.628906 66.054688 7.652344 Z M 61.359375 5.9375 C 61.335938 6.140625 61.542969 6.210938 61.746094 6.253906 C 61.90625 6.277344 62.269531 6.277344 62.335938 6.140625 C 62.515625 5.847656 61.679688 5.714844 61.359375 5.9375 Z M 66.375 5.714844 C 66.171875 5.667969 65.921875 5.691406 65.738281 5.78125 C 65.511719 5.871094 65.421875 6.074219 65.738281 6.140625 C 66.191406 6.210938 66.917969 5.847656 66.375 5.714844 Z M 66.011719 4.835938 C 65.941406 4.5625 65.535156 3.910156 65.375 3.867188 C 65.21875 3.820312 64.171875 3.957031 63.902344 3.957031 C 63.628906 3.957031 62.539062 3.886719 62.382812 3.976562 C 62.289062 4.023438 61.8125 4.765625 61.859375 4.945312 C 62.539062 4.945312 63.265625 5.015625 63.945312 4.992188 C 64.605469 4.992188 65.332031 4.878906 66.011719 4.835938 Z M 66.011719 4.835938 " fill-opacity="1" fill-rule="evenodd"/></g></g><path fill="#373435" d="M 59.761719 9.0625 C 60.253906 8.871094 60.753906 8.699219 61.261719 8.546875 L 61.351562 8.847656 C 60.851562 8.996094 60.359375 9.164062 59.875 9.351562 Z M 62.183594 8.300781 C 62.699219 8.179688 63.222656 8.078125 63.742188 8 L 63.789062 8.308594 C 63.277344 8.386719 62.765625 8.484375 62.257812 8.605469 Z M 64.691406 7.886719 C 65.222656 7.835938 65.753906 7.8125 66.277344 7.8125 L 66.277344 8.125 C 65.761719 8.125 65.242188 8.148438 64.71875 8.195312 Z M 67.230469 7.839844 C 67.71875 7.871094 68.195312 7.921875 68.667969 7.992188 L 68.617188 8.300781 C 68.15625 8.230469 67.6875 8.179688 67.214844 8.152344 Z M 67.230469 7.839844 " fill-opacity="1" fill-rule="nonzero"/><path fill="#fefefe" d="M 59.894531 10.855469 C 59.792969 10.898438 59.695312 10.941406 59.605469 10.984375 C 59.558594 11.007812 59.523438 10.996094 59.5 10.949219 C 59.476562 10.902344 59.488281 10.867188 59.539062 10.84375 C 59.632812 10.800781 59.730469 10.757812 59.832031 10.714844 C 59.882812 10.691406 59.914062 10.707031 59.9375 10.753906 C 59.957031 10.804688 59.941406 10.835938 59.894531 10.855469 Z M 59.195312 11.199219 C 59.101562 11.253906 59.015625 11.308594 58.9375 11.363281 C 58.894531 11.394531 58.855469 11.386719 58.828125 11.34375 C 58.796875 11.300781 58.800781 11.265625 58.84375 11.234375 C 58.929688 11.175781 59.019531 11.121094 59.117188 11.0625 C 59.160156 11.039062 59.199219 11.046875 59.222656 11.089844 C 59.25 11.136719 59.242188 11.171875 59.195312 11.199219 Z M 58.582031 11.65625 C 58.507812 11.730469 58.445312 11.808594 58.394531 11.886719 C 58.367188 11.929688 58.328125 11.9375 58.285156 11.90625 C 58.242188 11.878906 58.234375 11.84375 58.261719 11.800781 C 58.320312 11.714844 58.390625 11.628906 58.46875 11.546875 C 58.507812 11.511719 58.542969 11.511719 58.582031 11.546875 C 58.617188 11.582031 58.621094 11.621094 58.582031 11.65625 Z M 58.230469 12.289062 C 58.214844 12.382812 58.21875 12.476562 58.234375 12.574219 C 58.242188 12.625 58.21875 12.65625 58.167969 12.664062 C 58.117188 12.671875 58.085938 12.652344 58.078125 12.597656 C 58.058594 12.484375 58.058594 12.375 58.074219 12.261719 C 58.082031 12.210938 58.113281 12.191406 58.164062 12.199219 C 58.21875 12.207031 58.238281 12.234375 58.230469 12.289062 Z M 58.390625 12.980469 C 58.441406 13.0625 58.5 13.144531 58.566406 13.226562 C 58.601562 13.265625 58.597656 13.304688 58.554688 13.335938 C 58.515625 13.371094 58.480469 13.367188 58.445312 13.328125 C 58.371094 13.238281 58.308594 13.152344 58.257812 13.0625 C 58.230469 13.015625 58.238281 12.980469 58.285156 12.953125 C 58.328125 12.929688 58.363281 12.9375 58.390625 12.980469 Z M 58.886719 13.550781 C 58.960938 13.617188 59.042969 13.679688 59.128906 13.746094 C 59.171875 13.777344 59.175781 13.8125 59.144531 13.855469 C 59.113281 13.898438 59.074219 13.902344 59.035156 13.871094 C 58.945312 13.804688 58.863281 13.738281 58.785156 13.667969 C 58.746094 13.636719 58.742188 13.597656 58.777344 13.558594 C 58.8125 13.519531 58.847656 13.519531 58.886719 13.550781 Z M 59.511719 14.007812 C 59.597656 14.0625 59.6875 14.113281 59.78125 14.167969 C 59.828125 14.191406 59.835938 14.226562 59.8125 14.273438 C 59.785156 14.320312 59.75 14.328125 59.703125 14.304688 C 59.609375 14.25 59.515625 14.195312 59.429688 14.140625 C 59.382812 14.113281 59.375 14.078125 59.402344 14.03125 C 59.433594 13.988281 59.46875 13.980469 59.511719 14.007812 Z M 60.199219 14.382812 C 60.289062 14.425781 60.386719 14.472656 60.480469 14.511719 C 60.527344 14.535156 60.542969 14.570312 60.519531 14.617188 C 60.5 14.664062 60.464844 14.675781 60.417969 14.65625 C 60.320312 14.613281 60.222656 14.570312 60.128906 14.523438 C 60.082031 14.5 60.070312 14.464844 60.09375 14.417969 C 60.113281 14.371094 60.148438 14.359375 60.199219 14.382812 Z M 60.917969 14.691406 C 61.015625 14.726562 61.113281 14.761719 61.210938 14.796875 C 61.261719 14.8125 61.277344 14.84375 61.261719 14.894531 C 61.246094 14.945312 61.210938 14.960938 61.160156 14.945312 C 61.0625 14.910156 60.960938 14.875 60.859375 14.835938 C 60.8125 14.820312 60.796875 14.785156 60.816406 14.734375 C 60.832031 14.6875 60.867188 14.671875 60.917969 14.691406 Z M 61.660156 14.929688 C 61.765625 14.957031 61.863281 14.980469 61.960938 15.003906 C 62.011719 15.011719 62.03125 15.042969 62.019531 15.09375 C 62.007812 15.144531 61.980469 15.164062 61.925781 15.15625 C 61.828125 15.136719 61.726562 15.109375 61.621094 15.082031 C 61.570312 15.070312 61.550781 15.035156 61.566406 14.988281 C 61.578125 14.9375 61.609375 14.917969 61.660156 14.929688 Z M 61.660156 14.929688 " fill-opacity="1" fill-rule="nonzero"/></svg>